<svg xmlns="http://www.w3.org/2000/svg" viewBox="0 0 64 64">
  <path d="M8 54V25l8-7h31l9 7v29Z" fill="#698a69" stroke="#315547" stroke-width="4" stroke-linejoin="round"/>
  <path d="M12 23h40M16 20V10h7v10m18 0V10h7v10M20 53V29h7v24m11 0V29h7v24" fill="none" stroke="#bdd3a0" stroke-width="5"/>
  <path d="m27 45 3-23 7-9 7 9-2 23-8 14Z" fill="#39bb82" stroke="#1a755b" stroke-width="3" stroke-linejoin="round"/>
  <path d="m30 22 7-9 7 9-9 11Z" fill="#a6f7c8"/>
  <path d="M5 56q6-11 13-5m31-3q8-2 11 9" fill="none" stroke="#71b35c" stroke-width="5" stroke-linecap="round"/>
</svg>
